# This file uses centimeters as units for non-parametric coordinates.

mtllib 3D_Scene.mtl
g default
v -1.000000 2.000000 1.000000
v 1.000000 2.000000 1.000000
v -1.000000 2.000000 -1.000000
v 1.000000 2.000000 -1.000000
vn 0.000000 1.000000 0.000000
vn 0.000000 1.000000 0.000000
vn 0.000000 1.000000 0.000000
vn 0.000000 1.000000 0.000000
vn 0.000000 1.000000 0.000000
vn 0.000000 1.000000 0.000000
s off
g simple_quad3:Mesh group2
usemtl initialShadingGroup
f 2//1 3//2 1//3
f 2//4 4//5 3//6
g default
v 1.000000 2.000000 1.000000
v 1.000000 0.000000 1.000000
v 1.000000 2.000000 -1.000000
v 1.000000 0.000000 -1.000000
vn 1.000000 -0.000000 0.000000
vn 1.000000 -0.000000 0.000000
vn 1.000000 -0.000000 0.000000
vn 1.000000 -0.000000 0.000000
vn 1.000000 -0.000000 0.000000
vn 1.000000 -0.000000 0.000000
s off
g simple_quad2:Mesh pasted__group group1
usemtl initialShadingGroup
f 6//7 7//8 5//9
f 6//10 8//11 7//12
g default
v -1.000000 2.000000 -1.000000
v -1.000000 0.000000 -1.000000
v 1.000000 2.000000 -1.000000
v 1.000000 0.000000 -1.000000
vn 0.000000 -0.000000 1.000000
vn 0.000000 -0.000000 1.000000
vn 0.000000 -0.000000 1.000000
vn 0.000000 -0.000000 1.000000
vn 0.000000 -0.000000 1.000000
vn 0.000000 -0.000000 1.000000
s off
g simple_quad4:Mesh pasted__group group3
usemtl initialShadingGroup
f 10//13 11//14 9//15
f 10//16 12//17 11//18
g default
v -1.000000 0.000000 1.000000
v 1.000000 0.000000 1.000000
v -1.000000 0.000000 -1.000000
v 1.000000 0.000000 -1.000000
vn 0.000000 1.000000 0.000000
vn 0.000000 1.000000 0.000000
vn 0.000000 1.000000 0.000000
vn 0.000000 1.000000 0.000000
vn 0.000000 1.000000 0.000000
vn 0.000000 1.000000 0.000000
s off
g simple_quad:Mesh
usemtl initialShadingGroup
f 14//19 15//20 13//21
f 14//22 16//23 15//24
g default
v -1.000000 2.000000 1.000000
v -1.000000 0.000000 1.000000
v -1.000000 2.000000 -1.000000
v -1.000000 0.000000 -1.000000
vn 1.000000 -0.000000 0.000000
vn 1.000000 -0.000000 0.000000
vn 1.000000 -0.000000 0.000000
vn 1.000000 -0.000000 0.000000
vn 1.000000 -0.000000 0.000000
vn 1.000000 -0.000000 0.000000
s off
g simple_quad1:Mesh group
usemtl initialShadingGroup
f 18//25 19//26 17//27
f 18//28 20//29 19//30
